<svg xmlns="http://www.w3.org/2000/svg" viewBox="0 0 1024 1024">
  <title>Pixel Baseball — Classic</title>
  <rect width="1024" height="1024" fill="#E8E4DA"/>
  <rect x="64" y="352" width="32" height="32" fill="#1C1C1C"/>
  <rect x="64" y="384" width="32" height="32" fill="#1C1C1C"/>
  <rect x="64" y="416" width="32" height="32" fill="#1C1C1C"/>
  <rect x="64" y="448" width="32" height="32" fill="#1C1C1C"/>
  <rect x="64" y="480" width="32" height="32" fill="#1C1C1C"/>
  <rect x="64" y="512" width="32" height="32" fill="#1C1C1C"/>
  <rect x="64" y="544" width="32" height="32" fill="#1C1C1C"/>
  <rect x="64" y="576" width="32" height="32" fill="#1C1C1C"/>
  <rect x="64" y="608" width="32" height="32" fill="#1C1C1C"/>
  <rect x="64" y="640" width="32" height="32" fill="#1C1C1C"/>
  <rect x="96" y="288" width="32" height="32" fill="#1C1C1C"/>
  <rect x="96" y="320" width="32" height="32" fill="#1C1C1C"/>
  <rect x="96" y="352" width="32" height="32" fill="#1C1C1C"/>
  <rect x="96" y="384" width="32" height="32" fill="#F8F5ED"/>
  <rect x="96" y="416" width="32" height="32" fill="#F8F5ED"/>
  <rect x="96" y="448" width="32" height="32" fill="#F8F5ED"/>
  <rect x="96" y="480" width="32" height="32" fill="#F8F5ED"/>
  <rect x="96" y="512" width="32" height="32" fill="#F8F5ED"/>
  <rect x="96" y="544" width="32" height="32" fill="#F8F5ED"/>
  <rect x="96" y="576" width="32" height="32" fill="#F8F5ED"/>
  <rect x="96" y="608" width="32" height="32" fill="#F8F5ED"/>
  <rect x="96" y="640" width="32" height="32" fill="#1C1C1C"/>
  <rect x="96" y="672" width="32" height="32" fill="#1C1C1C"/>
  <rect x="96" y="704" width="32" height="32" fill="#1C1C1C"/>
  <rect x="128" y="224" width="32" height="32" fill="#1C1C1C"/>
  <rect x="128" y="256" width="32" height="32" fill="#1C1C1C"/>
  <rect x="128" y="288" width="32" height="32" fill="#1C1C1C"/>
  <rect x="128" y="320" width="32" height="32" fill="#F8F5ED"/>
  <rect x="128" y="352" width="32" height="32" fill="#F8F5ED"/>
  <rect x="128" y="384" width="32" height="32" fill="#F8F5ED"/>
  <rect x="128" y="416" width="32" height="32" fill="#F8F5ED"/>
  <rect x="128" y="448" width="32" height="32" fill="#F8F5ED"/>
  <rect x="128" y="480" width="32" height="32" fill="#F8F5ED"/>
  <rect x="128" y="512" width="32" height="32" fill="#F8F5ED"/>
  <rect x="128" y="544" width="32" height="32" fill="#F8F5ED"/>
  <rect x="128" y="576" width="32" height="32" fill="#F8F5ED"/>
  <rect x="128" y="608" width="32" height="32" fill="#F8F5ED"/>
  <rect x="128" y="640" width="32" height="32" fill="#F8F5ED"/>
  <rect x="128" y="672" width="32" height="32" fill="#F8F5ED"/>
  <rect x="128" y="704" width="32" height="32" fill="#1C1C1C"/>
  <rect x="128" y="736" width="32" height="32" fill="#1C1C1C"/>
  <rect x="128" y="768" width="32" height="32" fill="#1C1C1C"/>
  <rect x="160" y="192" width="32" height="32" fill="#1C1C1C"/>
  <rect x="160" y="224" width="32" height="32" fill="#1C1C1C"/>
  <rect x="160" y="256" width="32" height="32" fill="#F8F5ED"/>
  <rect x="160" y="288" width="32" height="32" fill="#F8F5ED"/>
  <rect x="160" y="320" width="32" height="32" fill="#F8F5ED"/>
  <rect x="160" y="352" width="32" height="32" fill="#F8F5ED"/>
  <rect x="160" y="384" width="32" height="32" fill="#F8F5ED"/>
  <rect x="160" y="416" width="32" height="32" fill="#F8F5ED"/>
  <rect x="160" y="448" width="32" height="32" fill="#F8F5ED"/>
  <rect x="160" y="480" width="32" height="32" fill="#F8F5ED"/>
  <rect x="160" y="512" width="32" height="32" fill="#F8F5ED"/>
  <rect x="160" y="544" width="32" height="32" fill="#F8F5ED"/>
  <rect x="160" y="576" width="32" height="32" fill="#F8F5ED"/>
  <rect x="160" y="608" width="32" height="32" fill="#F8F5ED"/>
  <rect x="160" y="640" width="32" height="32" fill="#F8F5ED"/>
  <rect x="160" y="672" width="32" height="32" fill="#F8F5ED"/>
  <rect x="160" y="704" width="32" height="32" fill="#F8F5ED"/>
  <rect x="160" y="736" width="32" height="32" fill="#F8F5ED"/>
  <rect x="160" y="768" width="32" height="32" fill="#1C1C1C"/>
  <rect x="160" y="800" width="32" height="32" fill="#1C1C1C"/>
  <rect x="192" y="160" width="32" height="32" fill="#1C1C1C"/>
  <rect x="192" y="192" width="32" height="32" fill="#1C1C1C"/>
  <rect x="192" y="224" width="32" height="32" fill="#F8F5ED"/>
  <rect x="192" y="256" width="32" height="32" fill="#F8F5ED"/>
  <rect x="192" y="288" width="32" height="32" fill="#F8F5ED"/>
  <rect x="192" y="320" width="32" height="32" fill="#F8F5ED"/>
  <rect x="192" y="352" width="32" height="32" fill="#F8F5ED"/>
  <rect x="192" y="384" width="32" height="32" fill="#F8F5ED"/>
  <rect x="192" y="416" width="32" height="32" fill="#F8F5ED"/>
  <rect x="192" y="448" width="32" height="32" fill="#F8F5ED"/>
  <rect x="192" y="480" width="32" height="32" fill="#F8F5ED"/>
  <rect x="192" y="512" width="32" height="32" fill="#F8F5ED"/>
  <rect x="192" y="544" width="32" height="32" fill="#F8F5ED"/>
  <rect x="192" y="576" width="32" height="32" fill="#F8F5ED"/>
  <rect x="192" y="608" width="32" height="32" fill="#F8F5ED"/>
  <rect x="192" y="640" width="32" height="32" fill="#F8F5ED"/>
  <rect x="192" y="672" width="32" height="32" fill="#F8F5ED"/>
  <rect x="192" y="704" width="32" height="32" fill="#F8F5ED"/>
  <rect x="192" y="736" width="32" height="32" fill="#F8F5ED"/>
  <rect x="192" y="768" width="32" height="32" fill="#F8F5ED"/>
  <rect x="192" y="800" width="32" height="32" fill="#1C1C1C"/>
  <rect x="192" y="832" width="32" height="32" fill="#1C1C1C"/>
  <rect x="224" y="128" width="32" height="32" fill="#1C1C1C"/>
  <rect x="224" y="160" width="32" height="32" fill="#1C1C1C"/>
  <rect x="224" y="192" width="32" height="32" fill="#F8F5ED"/>
  <rect x="224" y="224" width="32" height="32" fill="#F8F5ED"/>
  <rect x="224" y="256" width="32" height="32" fill="#F8F5ED"/>
  <rect x="224" y="288" width="32" height="32" fill="#F8F5ED"/>
  <rect x="224" y="320" width="32" height="32" fill="#F8F5ED"/>
  <rect x="224" y="352" width="32" height="32" fill="#F8F5ED"/>
  <rect x="224" y="384" width="32" height="32" fill="#F8F5ED"/>
  <rect x="224" y="416" width="32" height="32" fill="#F8F5ED"/>
  <rect x="224" y="448" width="32" height="32" fill="#F8F5ED"/>
  <rect x="224" y="480" width="32" height="32" fill="#F8F5ED"/>
  <rect x="224" y="512" width="32" height="32" fill="#F8F5ED"/>
  <rect x="224" y="544" width="32" height="32" fill="#F8F5ED"/>
  <rect x="224" y="576" width="32" height="32" fill="#F8F5ED"/>
  <rect x="224" y="608" width="32" height="32" fill="#F8F5ED"/>
  <rect x="224" y="640" width="32" height="32" fill="#F8F5ED"/>
  <rect x="224" y="672" width="32" height="32" fill="#F8F5ED"/>
  <rect x="224" y="704" width="32" height="32" fill="#F8F5ED"/>
  <rect x="224" y="736" width="32" height="32" fill="#F8F5ED"/>
  <rect x="224" y="768" width="32" height="32" fill="#F8F5ED"/>
  <rect x="224" y="800" width="32" height="32" fill="#F8F5ED"/>
  <rect x="224" y="832" width="32" height="32" fill="#1C1C1C"/>
  <rect x="224" y="864" width="32" height="32" fill="#1C1C1C"/>
  <rect x="256" y="128" width="32" height="32" fill="#1C1C1C"/>
  <rect x="256" y="160" width="32" height="32" fill="#F8F5ED"/>
  <rect x="256" y="192" width="32" height="32" fill="#F8F5ED"/>
  <rect x="256" y="224" width="32" height="32" fill="#F8F5ED"/>
  <rect x="256" y="256" width="32" height="32" fill="#F8F5ED"/>
  <rect x="256" y="288" width="32" height="32" fill="#F8F5ED"/>
  <rect x="256" y="320" width="32" height="32" fill="#F8F5ED"/>
  <rect x="256" y="352" width="32" height="32" fill="#F8F5ED"/>
  <rect x="256" y="384" width="32" height="32" fill="#F8F5ED"/>
  <rect x="256" y="416" width="32" height="32" fill="#F8F5ED"/>
  <rect x="256" y="448" width="32" height="32" fill="#F8F5ED"/>
  <rect x="256" y="480" width="32" height="32" fill="#F8F5ED"/>
  <rect x="256" y="512" width="32" height="32" fill="#F8F5ED"/>
  <rect x="256" y="544" width="32" height="32" fill="#F8F5ED"/>
  <rect x="256" y="576" width="32" height="32" fill="#F8F5ED"/>
  <rect x="256" y="608" width="32" height="32" fill="#F8F5ED"/>
  <rect x="256" y="640" width="32" height="32" fill="#F8F5ED"/>
  <rect x="256" y="672" width="32" height="32" fill="#F8F5ED"/>
  <rect x="256" y="704" width="32" height="32" fill="#F8F5ED"/>
  <rect x="256" y="736" width="32" height="32" fill="#F8F5ED"/>
  <rect x="256" y="768" width="32" height="32" fill="#F8F5ED"/>
  <rect x="256" y="800" width="32" height="32" fill="#F8F5ED"/>
  <rect x="256" y="832" width="32" height="32" fill="#F8F5ED"/>
  <rect x="256" y="864" width="32" height="32" fill="#1C1C1C"/>
  <rect x="288" y="96" width="32" height="32" fill="#1C1C1C"/>
  <rect x="288" y="128" width="32" height="32" fill="#1C1C1C"/>
  <rect x="288" y="160" width="32" height="32" fill="#F8F5ED"/>
  <rect x="288" y="192" width="32" height="32" fill="#F8F5ED"/>
  <rect x="288" y="224" width="32" height="32" fill="#F8F5ED"/>
  <rect x="288" y="256" width="32" height="32" fill="#F8F5ED"/>
  <rect x="288" y="288" width="32" height="32" fill="#F8F5ED"/>
  <rect x="288" y="320" width="32" height="32" fill="#F8F5ED"/>
  <rect x="288" y="352" width="32" height="32" fill="#F8F5ED"/>
  <rect x="288" y="384" width="32" height="32" fill="#F8F5ED"/>
  <rect x="288" y="416" width="32" height="32" fill="#F8F5ED"/>
  <rect x="288" y="448" width="32" height="32" fill="#F8F5ED"/>
  <rect x="288" y="480" width="32" height="32" fill="#F8F5ED"/>
  <rect x="288" y="512" width="32" height="32" fill="#F8F5ED"/>
  <rect x="288" y="544" width="32" height="32" fill="#F8F5ED"/>
  <rect x="288" y="576" width="32" height="32" fill="#F8F5ED"/>
  <rect x="288" y="608" width="32" height="32" fill="#F8F5ED"/>
  <rect x="288" y="640" width="32" height="32" fill="#F8F5ED"/>
  <rect x="288" y="672" width="32" height="32" fill="#F8F5ED"/>
  <rect x="288" y="704" width="32" height="32" fill="#F8F5ED"/>
  <rect x="288" y="736" width="32" height="32" fill="#F8F5ED"/>
  <rect x="288" y="768" width="32" height="32" fill="#F8F5ED"/>
  <rect x="288" y="800" width="32" height="32" fill="#F8F5ED"/>
  <rect x="288" y="832" width="32" height="32" fill="#F8F5ED"/>
  <rect x="288" y="864" width="32" height="32" fill="#1C1C1C"/>
  <rect x="288" y="896" width="32" height="32" fill="#1C1C1C"/>
  <rect x="320" y="96" width="32" height="32" fill="#1C1C1C"/>
  <rect x="320" y="128" width="32" height="32" fill="#F8F5ED"/>
  <rect x="320" y="160" width="32" height="32" fill="#CC2200"/>
  <rect x="320" y="192" width="32" height="32" fill="#F8F5ED"/>
  <rect x="320" y="224" width="32" height="32" fill="#F8F5ED"/>
  <rect x="320" y="256" width="32" height="32" fill="#F8F5ED"/>
  <rect x="320" y="288" width="32" height="32" fill="#F8F5ED"/>
  <rect x="320" y="320" width="32" height="32" fill="#F8F5ED"/>
  <rect x="320" y="352" width="32" height="32" fill="#F8F5ED"/>
  <rect x="320" y="384" width="32" height="32" fill="#F8F5ED"/>
  <rect x="320" y="416" width="32" height="32" fill="#F8F5ED"/>
  <rect x="320" y="448" width="32" height="32" fill="#F8F5ED"/>
  <rect x="320" y="480" width="32" height="32" fill="#F8F5ED"/>
  <rect x="320" y="512" width="32" height="32" fill="#F8F5ED"/>
  <rect x="320" y="544" width="32" height="32" fill="#F8F5ED"/>
  <rect x="320" y="576" width="32" height="32" fill="#F8F5ED"/>
  <rect x="320" y="608" width="32" height="32" fill="#F8F5ED"/>
  <rect x="320" y="640" width="32" height="32" fill="#F8F5ED"/>
  <rect x="320" y="672" width="32" height="32" fill="#F8F5ED"/>
  <rect x="320" y="704" width="32" height="32" fill="#F8F5ED"/>
  <rect x="320" y="736" width="32" height="32" fill="#F8F5ED"/>
  <rect x="320" y="768" width="32" height="32" fill="#F8F5ED"/>
  <rect x="320" y="800" width="32" height="32" fill="#F8F5ED"/>
  <rect x="320" y="832" width="32" height="32" fill="#CC2200"/>
  <rect x="320" y="864" width="32" height="32" fill="#F8F5ED"/>
  <rect x="320" y="896" width="32" height="32" fill="#1C1C1C"/>
  <rect x="352" y="64" width="32" height="32" fill="#1C1C1C"/>
  <rect x="352" y="96" width="32" height="32" fill="#1C1C1C"/>
  <rect x="352" y="128" width="32" height="32" fill="#CC2200"/>
  <rect x="352" y="160" width="32" height="32" fill="#CC2200"/>
  <rect x="352" y="192" width="32" height="32" fill="#CC2200"/>
  <rect x="352" y="224" width="32" height="32" fill="#F8F5ED"/>
  <rect x="352" y="256" width="32" height="32" fill="#F8F5ED"/>
  <rect x="352" y="288" width="32" height="32" fill="#F8F5ED"/>
  <rect x="352" y="320" width="32" height="32" fill="#F8F5ED"/>
  <rect x="352" y="352" width="32" height="32" fill="#CC2200"/>
  <rect x="352" y="384" width="32" height="32" fill="#F8F5ED"/>
  <rect x="352" y="416" width="32" height="32" fill="#CC2200"/>
  <rect x="352" y="448" width="32" height="32" fill="#CC2200"/>
  <rect x="352" y="480" width="32" height="32" fill="#CC2200"/>
  <rect x="352" y="512" width="32" height="32" fill="#CC2200"/>
  <rect x="352" y="544" width="32" height="32" fill="#CC2200"/>
  <rect x="352" y="576" width="32" height="32" fill="#CC2200"/>
  <rect x="352" y="608" width="32" height="32" fill="#F8F5ED"/>
  <rect x="352" y="640" width="32" height="32" fill="#CC2200"/>
  <rect x="352" y="672" width="32" height="32" fill="#F8F5ED"/>
  <rect x="352" y="704" width="32" height="32" fill="#F8F5ED"/>
  <rect x="352" y="736" width="32" height="32" fill="#F8F5ED"/>
  <rect x="352" y="768" width="32" height="32" fill="#F8F5ED"/>
  <rect x="352" y="800" width="32" height="32" fill="#CC2200"/>
  <rect x="352" y="832" width="32" height="32" fill="#CC2200"/>
  <rect x="352" y="864" width="32" height="32" fill="#CC2200"/>
  <rect x="352" y="896" width="32" height="32" fill="#1C1C1C"/>
  <rect x="352" y="928" width="32" height="32" fill="#1C1C1C"/>
  <rect x="384" y="64" width="32" height="32" fill="#1C1C1C"/>
  <rect x="384" y="96" width="32" height="32" fill="#CC2200"/>
  <rect x="384" y="128" width="32" height="32" fill="#CC2200"/>
  <rect x="384" y="160" width="32" height="32" fill="#CC2200"/>
  <rect x="384" y="192" width="32" height="32" fill="#CC2200"/>
  <rect x="384" y="224" width="32" height="32" fill="#CC2200"/>
  <rect x="384" y="256" width="32" height="32" fill="#CC2200"/>
  <rect x="384" y="288" width="32" height="32" fill="#F8F5ED"/>
  <rect x="384" y="320" width="32" height="32" fill="#F8F5ED"/>
  <rect x="384" y="352" width="32" height="32" fill="#CC2200"/>
  <rect x="384" y="384" width="32" height="32" fill="#CC2200"/>
  <rect x="384" y="416" width="32" height="32" fill="#CC2200"/>
  <rect x="384" y="448" width="32" height="32" fill="#CC2200"/>
  <rect x="384" y="480" width="32" height="32" fill="#CC2200"/>
  <rect x="384" y="512" width="32" height="32" fill="#CC2200"/>
  <rect x="384" y="544" width="32" height="32" fill="#CC2200"/>
  <rect x="384" y="576" width="32" height="32" fill="#CC2200"/>
  <rect x="384" y="608" width="32" height="32" fill="#CC2200"/>
  <rect x="384" y="640" width="32" height="32" fill="#CC2200"/>
  <rect x="384" y="672" width="32" height="32" fill="#F8F5ED"/>
  <rect x="384" y="704" width="32" height="32" fill="#F8F5ED"/>
  <rect x="384" y="736" width="32" height="32" fill="#CC2200"/>
  <rect x="384" y="768" width="32" height="32" fill="#CC2200"/>
  <rect x="384" y="800" width="32" height="32" fill="#CC2200"/>
  <rect x="384" y="832" width="32" height="32" fill="#CC2200"/>
  <rect x="384" y="864" width="32" height="32" fill="#CC2200"/>
  <rect x="384" y="896" width="32" height="32" fill="#CC2200"/>
  <rect x="384" y="928" width="32" height="32" fill="#1C1C1C"/>
  <rect x="416" y="64" width="32" height="32" fill="#1C1C1C"/>
  <rect x="416" y="96" width="32" height="32" fill="#F8F5ED"/>
  <rect x="416" y="128" width="32" height="32" fill="#CC2200"/>
  <rect x="416" y="160" width="32" height="32" fill="#F8F5ED"/>
  <rect x="416" y="192" width="32" height="32" fill="#CC2200"/>
  <rect x="416" y="224" width="32" height="32" fill="#CC2200"/>
  <rect x="416" y="256" width="32" height="32" fill="#CC2200"/>
  <rect x="416" y="288" width="32" height="32" fill="#F8F5ED"/>
  <rect x="416" y="320" width="32" height="32" fill="#CC2200"/>
  <rect x="416" y="352" width="32" height="32" fill="#CC2200"/>
  <rect x="416" y="384" width="32" height="32" fill="#CC2200"/>
  <rect x="416" y="416" width="32" height="32" fill="#CC2200"/>
  <rect x="416" y="448" width="32" height="32" fill="#F8F5ED"/>
  <rect x="416" y="480" width="32" height="32" fill="#F8F5ED"/>
  <rect x="416" y="512" width="32" height="32" fill="#F8F5ED"/>
  <rect x="416" y="544" width="32" height="32" fill="#F8F5ED"/>
  <rect x="416" y="576" width="32" height="32" fill="#CC2200"/>
  <rect x="416" y="608" width="32" height="32" fill="#CC2200"/>
  <rect x="416" y="640" width="32" height="32" fill="#CC2200"/>
  <rect x="416" y="672" width="32" height="32" fill="#CC2200"/>
  <rect x="416" y="704" width="32" height="32" fill="#F8F5ED"/>
  <rect x="416" y="736" width="32" height="32" fill="#CC2200"/>
  <rect x="416" y="768" width="32" height="32" fill="#CC2200"/>
  <rect x="416" y="800" width="32" height="32" fill="#CC2200"/>
  <rect x="416" y="832" width="32" height="32" fill="#F8F5ED"/>
  <rect x="416" y="864" width="32" height="32" fill="#CC2200"/>
  <rect x="416" y="896" width="32" height="32" fill="#F8F5ED"/>
  <rect x="416" y="928" width="32" height="32" fill="#1C1C1C"/>
  <rect x="448" y="64" width="32" height="32" fill="#1C1C1C"/>
  <rect x="448" y="96" width="32" height="32" fill="#F8F5ED"/>
  <rect x="448" y="128" width="32" height="32" fill="#CC2200"/>
  <rect x="448" y="160" width="32" height="32" fill="#F8F5ED"/>
  <rect x="448" y="192" width="32" height="32" fill="#F8F5ED"/>
  <rect x="448" y="224" width="32" height="32" fill="#CC2200"/>
  <rect x="448" y="256" width="32" height="32" fill="#CC2200"/>
  <rect x="448" y="288" width="32" height="32" fill="#CC2200"/>
  <rect x="448" y="320" width="32" height="32" fill="#CC2200"/>
  <rect x="448" y="352" width="32" height="32" fill="#CC2200"/>
  <rect x="448" y="384" width="32" height="32" fill="#F8F5ED"/>
  <rect x="448" y="416" width="32" height="32" fill="#CC2200"/>
  <rect x="448" y="448" width="32" height="32" fill="#F8F5ED"/>
  <rect x="448" y="480" width="32" height="32" fill="#F8F5ED"/>
  <rect x="448" y="512" width="32" height="32" fill="#F8F5ED"/>
  <rect x="448" y="544" width="32" height="32" fill="#F8F5ED"/>
  <rect x="448" y="576" width="32" height="32" fill="#CC2200"/>
  <rect x="448" y="608" width="32" height="32" fill="#F8F5ED"/>
  <rect x="448" y="640" width="32" height="32" fill="#CC2200"/>
  <rect x="448" y="672" width="32" height="32" fill="#CC2200"/>
  <rect x="448" y="704" width="32" height="32" fill="#CC2200"/>
  <rect x="448" y="736" width="32" height="32" fill="#CC2200"/>
  <rect x="448" y="768" width="32" height="32" fill="#CC2200"/>
  <rect x="448" y="800" width="32" height="32" fill="#F8F5ED"/>
  <rect x="448" y="832" width="32" height="32" fill="#F8F5ED"/>
  <rect x="448" y="864" width="32" height="32" fill="#CC2200"/>
  <rect x="448" y="896" width="32" height="32" fill="#F8F5ED"/>
  <rect x="448" y="928" width="32" height="32" fill="#1C1C1C"/>
  <rect x="480" y="64" width="32" height="32" fill="#1C1C1C"/>
  <rect x="480" y="96" width="32" height="32" fill="#F8F5ED"/>
  <rect x="480" y="128" width="32" height="32" fill="#F8F5ED"/>
  <rect x="480" y="160" width="32" height="32" fill="#F8F5ED"/>
  <rect x="480" y="192" width="32" height="32" fill="#CC2200"/>
  <rect x="480" y="224" width="32" height="32" fill="#F8F5ED"/>
  <rect x="480" y="256" width="32" height="32" fill="#CC2200"/>
  <rect x="480" y="288" width="32" height="32" fill="#CC2200"/>
  <rect x="480" y="320" width="32" height="32" fill="#CC2200"/>
  <rect x="480" y="352" width="32" height="32" fill="#CC2200"/>
  <rect x="480" y="384" width="32" height="32" fill="#F8F5ED"/>
  <rect x="480" y="416" width="32" height="32" fill="#F8F5ED"/>
  <rect x="480" y="448" width="32" height="32" fill="#F8F5ED"/>
  <rect x="480" y="480" width="32" height="32" fill="#F8F5ED"/>
  <rect x="480" y="512" width="32" height="32" fill="#F8F5ED"/>
  <rect x="480" y="544" width="32" height="32" fill="#F8F5ED"/>
  <rect x="480" y="576" width="32" height="32" fill="#F8F5ED"/>
  <rect x="480" y="608" width="32" height="32" fill="#F8F5ED"/>
  <rect x="480" y="640" width="32" height="32" fill="#CC2200"/>
  <rect x="480" y="672" width="32" height="32" fill="#CC2200"/>
  <rect x="480" y="704" width="32" height="32" fill="#CC2200"/>
  <rect x="480" y="736" width="32" height="32" fill="#CC2200"/>
  <rect x="480" y="768" width="32" height="32" fill="#F8F5ED"/>
  <rect x="480" y="800" width="32" height="32" fill="#CC2200"/>
  <rect x="480" y="832" width="32" height="32" fill="#F8F5ED"/>
  <rect x="480" y="864" width="32" height="32" fill="#F8F5ED"/>
  <rect x="480" y="896" width="32" height="32" fill="#F8F5ED"/>
  <rect x="480" y="928" width="32" height="32" fill="#1C1C1C"/>
  <rect x="512" y="64" width="32" height="32" fill="#1C1C1C"/>
  <rect x="512" y="96" width="32" height="32" fill="#F8F5ED"/>
  <rect x="512" y="128" width="32" height="32" fill="#F8F5ED"/>
  <rect x="512" y="160" width="32" height="32" fill="#F8F5ED"/>
  <rect x="512" y="192" width="32" height="32" fill="#CC2200"/>
  <rect x="512" y="224" width="32" height="32" fill="#CC2200"/>
  <rect x="512" y="256" width="32" height="32" fill="#CC2200"/>
  <rect x="512" y="288" width="32" height="32" fill="#CC2200"/>
  <rect x="512" y="320" width="32" height="32" fill="#CC2200"/>
  <rect x="512" y="352" width="32" height="32" fill="#CC2200"/>
  <rect x="512" y="384" width="32" height="32" fill="#F8F5ED"/>
  <rect x="512" y="416" width="32" height="32" fill="#F8F5ED"/>
  <rect x="512" y="448" width="32" height="32" fill="#F8F5ED"/>
  <rect x="512" y="480" width="32" height="32" fill="#F8F5ED"/>
  <rect x="512" y="512" width="32" height="32" fill="#F8F5ED"/>
  <rect x="512" y="544" width="32" height="32" fill="#F8F5ED"/>
  <rect x="512" y="576" width="32" height="32" fill="#F8F5ED"/>
  <rect x="512" y="608" width="32" height="32" fill="#F8F5ED"/>
  <rect x="512" y="640" width="32" height="32" fill="#CC2200"/>
  <rect x="512" y="672" width="32" height="32" fill="#CC2200"/>
  <rect x="512" y="704" width="32" height="32" fill="#CC2200"/>
  <rect x="512" y="736" width="32" height="32" fill="#CC2200"/>
  <rect x="512" y="768" width="32" height="32" fill="#CC2200"/>
  <rect x="512" y="800" width="32" height="32" fill="#CC2200"/>
  <rect x="512" y="832" width="32" height="32" fill="#F8F5ED"/>
  <rect x="512" y="864" width="32" height="32" fill="#F8F5ED"/>
  <rect x="512" y="896" width="32" height="32" fill="#F8F5ED"/>
  <rect x="512" y="928" width="32" height="32" fill="#1C1C1C"/>
  <rect x="544" y="64" width="32" height="32" fill="#1C1C1C"/>
  <rect x="544" y="96" width="32" height="32" fill="#F8F5ED"/>
  <rect x="544" y="128" width="32" height="32" fill="#CC2200"/>
  <rect x="544" y="160" width="32" height="32" fill="#F8F5ED"/>
  <rect x="544" y="192" width="32" height="32" fill="#CC2200"/>
  <rect x="544" y="224" width="32" height="32" fill="#CC2200"/>
  <rect x="544" y="256" width="32" height="32" fill="#CC2200"/>
  <rect x="544" y="288" width="32" height="32" fill="#CC2200"/>
  <rect x="544" y="320" width="32" height="32" fill="#CC2200"/>
  <rect x="544" y="352" width="32" height="32" fill="#CC2200"/>
  <rect x="544" y="384" width="32" height="32" fill="#CC2200"/>
  <rect x="544" y="416" width="32" height="32" fill="#CC2200"/>
  <rect x="544" y="448" width="32" height="32" fill="#F8F5ED"/>
  <rect x="544" y="480" width="32" height="32" fill="#F8F5ED"/>
  <rect x="544" y="512" width="32" height="32" fill="#F8F5ED"/>
  <rect x="544" y="544" width="32" height="32" fill="#F8F5ED"/>
  <rect x="544" y="576" width="32" height="32" fill="#CC2200"/>
  <rect x="544" y="608" width="32" height="32" fill="#CC2200"/>
  <rect x="544" y="640" width="32" height="32" fill="#CC2200"/>
  <rect x="544" y="672" width="32" height="32" fill="#CC2200"/>
  <rect x="544" y="704" width="32" height="32" fill="#CC2200"/>
  <rect x="544" y="736" width="32" height="32" fill="#CC2200"/>
  <rect x="544" y="768" width="32" height="32" fill="#CC2200"/>
  <rect x="544" y="800" width="32" height="32" fill="#CC2200"/>
  <rect x="544" y="832" width="32" height="32" fill="#F8F5ED"/>
  <rect x="544" y="864" width="32" height="32" fill="#CC2200"/>
  <rect x="544" y="896" width="32" height="32" fill="#F8F5ED"/>
  <rect x="544" y="928" width="32" height="32" fill="#1C1C1C"/>
  <rect x="576" y="64" width="32" height="32" fill="#1C1C1C"/>
  <rect x="576" y="96" width="32" height="32" fill="#CC2200"/>
  <rect x="576" y="128" width="32" height="32" fill="#CC2200"/>
  <rect x="576" y="160" width="32" height="32" fill="#CC2200"/>
  <rect x="576" y="192" width="32" height="32" fill="#CC2200"/>
  <rect x="576" y="224" width="32" height="32" fill="#CC2200"/>
  <rect x="576" y="256" width="32" height="32" fill="#CC2200"/>
  <rect x="576" y="288" width="32" height="32" fill="#F8F5ED"/>
  <rect x="576" y="320" width="32" height="32" fill="#F8F5ED"/>
  <rect x="576" y="352" width="32" height="32" fill="#CC2200"/>
  <rect x="576" y="384" width="32" height="32" fill="#CC2200"/>
  <rect x="576" y="416" width="32" height="32" fill="#CC2200"/>
  <rect x="576" y="448" width="32" height="32" fill="#CC2200"/>
  <rect x="576" y="480" width="32" height="32" fill="#CC2200"/>
  <rect x="576" y="512" width="32" height="32" fill="#CC2200"/>
  <rect x="576" y="544" width="32" height="32" fill="#CC2200"/>
  <rect x="576" y="576" width="32" height="32" fill="#CC2200"/>
  <rect x="576" y="608" width="32" height="32" fill="#CC2200"/>
  <rect x="576" y="640" width="32" height="32" fill="#CC2200"/>
  <rect x="576" y="672" width="32" height="32" fill="#F8F5ED"/>
  <rect x="576" y="704" width="32" height="32" fill="#F8F5ED"/>
  <rect x="576" y="736" width="32" height="32" fill="#CC2200"/>
  <rect x="576" y="768" width="32" height="32" fill="#CC2200"/>
  <rect x="576" y="800" width="32" height="32" fill="#CC2200"/>
  <rect x="576" y="832" width="32" height="32" fill="#CC2200"/>
  <rect x="576" y="864" width="32" height="32" fill="#CC2200"/>
  <rect x="576" y="896" width="32" height="32" fill="#CC2200"/>
  <rect x="576" y="928" width="32" height="32" fill="#1C1C1C"/>
  <rect x="608" y="64" width="32" height="32" fill="#1C1C1C"/>
  <rect x="608" y="96" width="32" height="32" fill="#CC2200"/>
  <rect x="608" y="128" width="32" height="32" fill="#CC2200"/>
  <rect x="608" y="160" width="32" height="32" fill="#CC2200"/>
  <rect x="608" y="192" width="32" height="32" fill="#CC2200"/>
  <rect x="608" y="224" width="32" height="32" fill="#F8F5ED"/>
  <rect x="608" y="256" width="32" height="32" fill="#CC2200"/>
  <rect x="608" y="288" width="32" height="32" fill="#F8F5ED"/>
  <rect x="608" y="320" width="32" height="32" fill="#F8F5ED"/>
  <rect x="608" y="352" width="32" height="32" fill="#F8F5ED"/>
  <rect x="608" y="384" width="32" height="32" fill="#CC2200"/>
  <rect x="608" y="416" width="32" height="32" fill="#CC2200"/>
  <rect x="608" y="448" width="32" height="32" fill="#CC2200"/>
  <rect x="608" y="480" width="32" height="32" fill="#CC2200"/>
  <rect x="608" y="512" width="32" height="32" fill="#CC2200"/>
  <rect x="608" y="544" width="32" height="32" fill="#CC2200"/>
  <rect x="608" y="576" width="32" height="32" fill="#CC2200"/>
  <rect x="608" y="608" width="32" height="32" fill="#CC2200"/>
  <rect x="608" y="640" width="32" height="32" fill="#F8F5ED"/>
  <rect x="608" y="672" width="32" height="32" fill="#F8F5ED"/>
  <rect x="608" y="704" width="32" height="32" fill="#F8F5ED"/>
  <rect x="608" y="736" width="32" height="32" fill="#CC2200"/>
  <rect x="608" y="768" width="32" height="32" fill="#F8F5ED"/>
  <rect x="608" y="800" width="32" height="32" fill="#CC2200"/>
  <rect x="608" y="832" width="32" height="32" fill="#CC2200"/>
  <rect x="608" y="864" width="32" height="32" fill="#CC2200"/>
  <rect x="608" y="896" width="32" height="32" fill="#CC2200"/>
  <rect x="608" y="928" width="32" height="32" fill="#1C1C1C"/>
  <rect x="640" y="64" width="32" height="32" fill="#1C1C1C"/>
  <rect x="640" y="96" width="32" height="32" fill="#1C1C1C"/>
  <rect x="640" y="128" width="32" height="32" fill="#F8F5ED"/>
  <rect x="640" y="160" width="32" height="32" fill="#CC2200"/>
  <rect x="640" y="192" width="32" height="32" fill="#F8F5ED"/>
  <rect x="640" y="224" width="32" height="32" fill="#F8F5ED"/>
  <rect x="640" y="256" width="32" height="32" fill="#F8F5ED"/>
  <rect x="640" y="288" width="32" height="32" fill="#F8F5ED"/>
  <rect x="640" y="320" width="32" height="32" fill="#F8F5ED"/>
  <rect x="640" y="352" width="32" height="32" fill="#CC2200"/>
  <rect x="640" y="384" width="32" height="32" fill="#F8F5ED"/>
  <rect x="640" y="416" width="32" height="32" fill="#F8F5ED"/>
  <rect x="640" y="448" width="32" height="32" fill="#F8F5ED"/>
  <rect x="640" y="480" width="32" height="32" fill="#F8F5ED"/>
  <rect x="640" y="512" width="32" height="32" fill="#F8F5ED"/>
  <rect x="640" y="544" width="32" height="32" fill="#F8F5ED"/>
  <rect x="640" y="576" width="32" height="32" fill="#F8F5ED"/>
  <rect x="640" y="608" width="32" height="32" fill="#F8F5ED"/>
  <rect x="640" y="640" width="32" height="32" fill="#CC2200"/>
  <rect x="640" y="672" width="32" height="32" fill="#F8F5ED"/>
  <rect x="640" y="704" width="32" height="32" fill="#F8F5ED"/>
  <rect x="640" y="736" width="32" height="32" fill="#F8F5ED"/>
  <rect x="640" y="768" width="32" height="32" fill="#F8F5ED"/>
  <rect x="640" y="800" width="32" height="32" fill="#F8F5ED"/>
  <rect x="640" y="832" width="32" height="32" fill="#CC2200"/>
  <rect x="640" y="864" width="32" height="32" fill="#F8F5ED"/>
  <rect x="640" y="896" width="32" height="32" fill="#1C1C1C"/>
  <rect x="640" y="928" width="32" height="32" fill="#1C1C1C"/>
  <rect x="672" y="96" width="32" height="32" fill="#1C1C1C"/>
  <rect x="672" y="128" width="32" height="32" fill="#F8F5ED"/>
  <rect x="672" y="160" width="32" height="32" fill="#CC2200"/>
  <rect x="672" y="192" width="32" height="32" fill="#F8F5ED"/>
  <rect x="672" y="224" width="32" height="32" fill="#F8F5ED"/>
  <rect x="672" y="256" width="32" height="32" fill="#F8F5ED"/>
  <rect x="672" y="288" width="32" height="32" fill="#F8F5ED"/>
  <rect x="672" y="320" width="32" height="32" fill="#F8F5ED"/>
  <rect x="672" y="352" width="32" height="32" fill="#F8F5ED"/>
  <rect x="672" y="384" width="32" height="32" fill="#F8F5ED"/>
  <rect x="672" y="416" width="32" height="32" fill="#F8F5ED"/>
  <rect x="672" y="448" width="32" height="32" fill="#F8F5ED"/>
  <rect x="672" y="480" width="32" height="32" fill="#F8F5ED"/>
  <rect x="672" y="512" width="32" height="32" fill="#F8F5ED"/>
  <rect x="672" y="544" width="32" height="32" fill="#F8F5ED"/>
  <rect x="672" y="576" width="32" height="32" fill="#F8F5ED"/>
  <rect x="672" y="608" width="32" height="32" fill="#F8F5ED"/>
  <rect x="672" y="640" width="32" height="32" fill="#F8F5ED"/>
  <rect x="672" y="672" width="32" height="32" fill="#F8F5ED"/>
  <rect x="672" y="704" width="32" height="32" fill="#F8F5ED"/>
  <rect x="672" y="736" width="32" height="32" fill="#F8F5ED"/>
  <rect x="672" y="768" width="32" height="32" fill="#F8F5ED"/>
  <rect x="672" y="800" width="32" height="32" fill="#F8F5ED"/>
  <rect x="672" y="832" width="32" height="32" fill="#CC2200"/>
  <rect x="672" y="864" width="32" height="32" fill="#F8F5ED"/>
  <rect x="672" y="896" width="32" height="32" fill="#1C1C1C"/>
  <rect x="704" y="96" width="32" height="32" fill="#1C1C1C"/>
  <rect x="704" y="128" width="32" height="32" fill="#1C1C1C"/>
  <rect x="704" y="160" width="32" height="32" fill="#F8F5ED"/>
  <rect x="704" y="192" width="32" height="32" fill="#F8F5ED"/>
  <rect x="704" y="224" width="32" height="32" fill="#F8F5ED"/>
  <rect x="704" y="256" width="32" height="32" fill="#F8F5ED"/>
  <rect x="704" y="288" width="32" height="32" fill="#F8F5ED"/>
  <rect x="704" y="320" width="32" height="32" fill="#F8F5ED"/>
  <rect x="704" y="352" width="32" height="32" fill="#F8F5ED"/>
  <rect x="704" y="384" width="32" height="32" fill="#F8F5ED"/>
  <rect x="704" y="416" width="32" height="32" fill="#F8F5ED"/>
  <rect x="704" y="448" width="32" height="32" fill="#F8F5ED"/>
  <rect x="704" y="480" width="32" height="32" fill="#F8F5ED"/>
  <rect x="704" y="512" width="32" height="32" fill="#F8F5ED"/>
  <rect x="704" y="544" width="32" height="32" fill="#F8F5ED"/>
  <rect x="704" y="576" width="32" height="32" fill="#F8F5ED"/>
  <rect x="704" y="608" width="32" height="32" fill="#F8F5ED"/>
  <rect x="704" y="640" width="32" height="32" fill="#F8F5ED"/>
  <rect x="704" y="672" width="32" height="32" fill="#F8F5ED"/>
  <rect x="704" y="704" width="32" height="32" fill="#F8F5ED"/>
  <rect x="704" y="736" width="32" height="32" fill="#F8F5ED"/>
  <rect x="704" y="768" width="32" height="32" fill="#F8F5ED"/>
  <rect x="704" y="800" width="32" height="32" fill="#F8F5ED"/>
  <rect x="704" y="832" width="32" height="32" fill="#F8F5ED"/>
  <rect x="704" y="864" width="32" height="32" fill="#1C1C1C"/>
  <rect x="704" y="896" width="32" height="32" fill="#1C1C1C"/>
  <rect x="736" y="128" width="32" height="32" fill="#1C1C1C"/>
  <rect x="736" y="160" width="32" height="32" fill="#F8F5ED"/>
  <rect x="736" y="192" width="32" height="32" fill="#F8F5ED"/>
  <rect x="736" y="224" width="32" height="32" fill="#F8F5ED"/>
  <rect x="736" y="256" width="32" height="32" fill="#F8F5ED"/>
  <rect x="736" y="288" width="32" height="32" fill="#F8F5ED"/>
  <rect x="736" y="320" width="32" height="32" fill="#F8F5ED"/>
  <rect x="736" y="352" width="32" height="32" fill="#F8F5ED"/>
  <rect x="736" y="384" width="32" height="32" fill="#F8F5ED"/>
  <rect x="736" y="416" width="32" height="32" fill="#F8F5ED"/>
  <rect x="736" y="448" width="32" height="32" fill="#F8F5ED"/>
  <rect x="736" y="480" width="32" height="32" fill="#F8F5ED"/>
  <rect x="736" y="512" width="32" height="32" fill="#F8F5ED"/>
  <rect x="736" y="544" width="32" height="32" fill="#F8F5ED"/>
  <rect x="736" y="576" width="32" height="32" fill="#F8F5ED"/>
  <rect x="736" y="608" width="32" height="32" fill="#F8F5ED"/>
  <rect x="736" y="640" width="32" height="32" fill="#F8F5ED"/>
  <rect x="736" y="672" width="32" height="32" fill="#F8F5ED"/>
  <rect x="736" y="704" width="32" height="32" fill="#F8F5ED"/>
  <rect x="736" y="736" width="32" height="32" fill="#F8F5ED"/>
  <rect x="736" y="768" width="32" height="32" fill="#F8F5ED"/>
  <rect x="736" y="800" width="32" height="32" fill="#F8F5ED"/>
  <rect x="736" y="832" width="32" height="32" fill="#F8F5ED"/>
  <rect x="736" y="864" width="32" height="32" fill="#1C1C1C"/>
  <rect x="768" y="128" width="32" height="32" fill="#1C1C1C"/>
  <rect x="768" y="160" width="32" height="32" fill="#1C1C1C"/>
  <rect x="768" y="192" width="32" height="32" fill="#F8F5ED"/>
  <rect x="768" y="224" width="32" height="32" fill="#F8F5ED"/>
  <rect x="768" y="256" width="32" height="32" fill="#F8F5ED"/>
  <rect x="768" y="288" width="32" height="32" fill="#F8F5ED"/>
  <rect x="768" y="320" width="32" height="32" fill="#F8F5ED"/>
  <rect x="768" y="352" width="32" height="32" fill="#F8F5ED"/>
  <rect x="768" y="384" width="32" height="32" fill="#F8F5ED"/>
  <rect x="768" y="416" width="32" height="32" fill="#F8F5ED"/>
  <rect x="768" y="448" width="32" height="32" fill="#F8F5ED"/>
  <rect x="768" y="480" width="32" height="32" fill="#F8F5ED"/>
  <rect x="768" y="512" width="32" height="32" fill="#F8F5ED"/>
  <rect x="768" y="544" width="32" height="32" fill="#F8F5ED"/>
  <rect x="768" y="576" width="32" height="32" fill="#F8F5ED"/>
  <rect x="768" y="608" width="32" height="32" fill="#F8F5ED"/>
  <rect x="768" y="640" width="32" height="32" fill="#F8F5ED"/>
  <rect x="768" y="672" width="32" height="32" fill="#F8F5ED"/>
  <rect x="768" y="704" width="32" height="32" fill="#F8F5ED"/>
  <rect x="768" y="736" width="32" height="32" fill="#F8F5ED"/>
  <rect x="768" y="768" width="32" height="32" fill="#F8F5ED"/>
  <rect x="768" y="800" width="32" height="32" fill="#F8F5ED"/>
  <rect x="768" y="832" width="32" height="32" fill="#1C1C1C"/>
  <rect x="768" y="864" width="32" height="32" fill="#1C1C1C"/>
  <rect x="800" y="160" width="32" height="32" fill="#1C1C1C"/>
  <rect x="800" y="192" width="32" height="32" fill="#1C1C1C"/>
  <rect x="800" y="224" width="32" height="32" fill="#F8F5ED"/>
  <rect x="800" y="256" width="32" height="32" fill="#F8F5ED"/>
  <rect x="800" y="288" width="32" height="32" fill="#F8F5ED"/>
  <rect x="800" y="320" width="32" height="32" fill="#F8F5ED"/>
  <rect x="800" y="352" width="32" height="32" fill="#F8F5ED"/>
  <rect x="800" y="384" width="32" height="32" fill="#F8F5ED"/>
  <rect x="800" y="416" width="32" height="32" fill="#F8F5ED"/>
  <rect x="800" y="448" width="32" height="32" fill="#F8F5ED"/>
  <rect x="800" y="480" width="32" height="32" fill="#F8F5ED"/>
  <rect x="800" y="512" width="32" height="32" fill="#F8F5ED"/>
  <rect x="800" y="544" width="32" height="32" fill="#F8F5ED"/>
  <rect x="800" y="576" width="32" height="32" fill="#F8F5ED"/>
  <rect x="800" y="608" width="32" height="32" fill="#F8F5ED"/>
  <rect x="800" y="640" width="32" height="32" fill="#F8F5ED"/>
  <rect x="800" y="672" width="32" height="32" fill="#F8F5ED"/>
  <rect x="800" y="704" width="32" height="32" fill="#F8F5ED"/>
  <rect x="800" y="736" width="32" height="32" fill="#F8F5ED"/>
  <rect x="800" y="768" width="32" height="32" fill="#F8F5ED"/>
  <rect x="800" y="800" width="32" height="32" fill="#1C1C1C"/>
  <rect x="800" y="832" width="32" height="32" fill="#1C1C1C"/>
  <rect x="832" y="192" width="32" height="32" fill="#1C1C1C"/>
  <rect x="832" y="224" width="32" height="32" fill="#1C1C1C"/>
  <rect x="832" y="256" width="32" height="32" fill="#F8F5ED"/>
  <rect x="832" y="288" width="32" height="32" fill="#F8F5ED"/>
  <rect x="832" y="320" width="32" height="32" fill="#F8F5ED"/>
  <rect x="832" y="352" width="32" height="32" fill="#F8F5ED"/>
  <rect x="832" y="384" width="32" height="32" fill="#F8F5ED"/>
  <rect x="832" y="416" width="32" height="32" fill="#F8F5ED"/>
  <rect x="832" y="448" width="32" height="32" fill="#F8F5ED"/>
  <rect x="832" y="480" width="32" height="32" fill="#F8F5ED"/>
  <rect x="832" y="512" width="32" height="32" fill="#F8F5ED"/>
  <rect x="832" y="544" width="32" height="32" fill="#F8F5ED"/>
  <rect x="832" y="576" width="32" height="32" fill="#F8F5ED"/>
  <rect x="832" y="608" width="32" height="32" fill="#F8F5ED"/>
  <rect x="832" y="640" width="32" height="32" fill="#F8F5ED"/>
  <rect x="832" y="672" width="32" height="32" fill="#F8F5ED"/>
  <rect x="832" y="704" width="32" height="32" fill="#F8F5ED"/>
  <rect x="832" y="736" width="32" height="32" fill="#F8F5ED"/>
  <rect x="832" y="768" width="32" height="32" fill="#1C1C1C"/>
  <rect x="832" y="800" width="32" height="32" fill="#1C1C1C"/>
  <rect x="864" y="224" width="32" height="32" fill="#1C1C1C"/>
  <rect x="864" y="256" width="32" height="32" fill="#1C1C1C"/>
  <rect x="864" y="288" width="32" height="32" fill="#1C1C1C"/>
  <rect x="864" y="320" width="32" height="32" fill="#F8F5ED"/>
  <rect x="864" y="352" width="32" height="32" fill="#F8F5ED"/>
  <rect x="864" y="384" width="32" height="32" fill="#F8F5ED"/>
  <rect x="864" y="416" width="32" height="32" fill="#F8F5ED"/>
  <rect x="864" y="448" width="32" height="32" fill="#F8F5ED"/>
  <rect x="864" y="480" width="32" height="32" fill="#F8F5ED"/>
  <rect x="864" y="512" width="32" height="32" fill="#F8F5ED"/>
  <rect x="864" y="544" width="32" height="32" fill="#F8F5ED"/>
  <rect x="864" y="576" width="32" height="32" fill="#F8F5ED"/>
  <rect x="864" y="608" width="32" height="32" fill="#F8F5ED"/>
  <rect x="864" y="640" width="32" height="32" fill="#F8F5ED"/>
  <rect x="864" y="672" width="32" height="32" fill="#F8F5ED"/>
  <rect x="864" y="704" width="32" height="32" fill="#1C1C1C"/>
  <rect x="864" y="736" width="32" height="32" fill="#1C1C1C"/>
  <rect x="864" y="768" width="32" height="32" fill="#1C1C1C"/>
  <rect x="896" y="288" width="32" height="32" fill="#1C1C1C"/>
  <rect x="896" y="320" width="32" height="32" fill="#1C1C1C"/>
  <rect x="896" y="352" width="32" height="32" fill="#1C1C1C"/>
  <rect x="896" y="384" width="32" height="32" fill="#F8F5ED"/>
  <rect x="896" y="416" width="32" height="32" fill="#F8F5ED"/>
  <rect x="896" y="448" width="32" height="32" fill="#F8F5ED"/>
  <rect x="896" y="480" width="32" height="32" fill="#F8F5ED"/>
  <rect x="896" y="512" width="32" height="32" fill="#F8F5ED"/>
  <rect x="896" y="544" width="32" height="32" fill="#F8F5ED"/>
  <rect x="896" y="576" width="32" height="32" fill="#F8F5ED"/>
  <rect x="896" y="608" width="32" height="32" fill="#F8F5ED"/>
  <rect x="896" y="640" width="32" height="32" fill="#1C1C1C"/>
  <rect x="896" y="672" width="32" height="32" fill="#1C1C1C"/>
  <rect x="896" y="704" width="32" height="32" fill="#1C1C1C"/>
  <rect x="928" y="352" width="32" height="32" fill="#1C1C1C"/>
  <rect x="928" y="384" width="32" height="32" fill="#1C1C1C"/>
  <rect x="928" y="416" width="32" height="32" fill="#1C1C1C"/>
  <rect x="928" y="448" width="32" height="32" fill="#1C1C1C"/>
  <rect x="928" y="480" width="32" height="32" fill="#1C1C1C"/>
  <rect x="928" y="512" width="32" height="32" fill="#1C1C1C"/>
  <rect x="928" y="544" width="32" height="32" fill="#1C1C1C"/>
  <rect x="928" y="576" width="32" height="32" fill="#1C1C1C"/>
  <rect x="928" y="608" width="32" height="32" fill="#1C1C1C"/>
  <rect x="928" y="640" width="32" height="32" fill="#1C1C1C"/>
</svg>